<svg id="svg" version="1.1" xmlns="http://www.w3.org/2000/svg" xmlns:xlink="http://www.w3.org/1999/xlink" width="400" height="390.8771929824561" viewBox="0, 0, 400,390.8771929824561"><g id="svgg"><path id="path0" d="M256.619 79.680 C 256.014 79.856,254.687 80.780,253.671 81.735 L 251.822 83.470 252.029 87.086 C 252.233 90.634,253.071 94.946,254.368 99.123 C 256.473 105.905,255.822 111.297,252.907 111.215 C 251.449 111.175,249.081 107.706,248.646 104.975 C 248.513 104.142,248.191 103.115,247.929 102.695 C 247.668 102.274,247.355 101.392,247.234 100.735 C 247.113 100.078,246.451 98.855,245.764 98.016 L 244.514 96.491 241.819 96.503 C 239.892 96.512,238.722 96.708,237.719 97.193 C 236.947 97.566,236.152 97.876,235.952 97.883 C 235.751 97.889,234.844 98.650,233.934 99.573 L 232.281 101.252 232.281 103.799 C 232.281 107.331,235.072 110.972,240.818 114.935 C 241.815 115.623,243.263 116.655,244.035 117.227 C 244.807 117.799,245.833 118.538,246.316 118.869 C 248.422 120.314,252.809 124.552,254.245 126.530 C 256.482 129.610,257.206 136.255,255.794 140.758 C 255.411 141.982,255.095 143.271,255.092 143.623 C 255.075 146.057,252.199 146.763,246.140 145.823 C 244.404 145.553,241.760 145.232,240.267 145.108 C 238.773 144.985,236.957 144.675,236.232 144.421 C 235.506 144.166,233.965 143.841,232.807 143.699 C 231.649 143.557,230.149 143.208,229.474 142.925 C 228.798 142.642,227.614 142.279,226.842 142.118 C 225.597 141.859,224.143 141.334,220.526 139.834 C 214.683 137.411,206.969 132.832,203.713 129.854 C 197.109 123.813,195.963 122.169,196.297 119.214 C 197.549 108.155,194.718 104.339,184.912 103.868 C 182.307 103.743,179.822 103.449,179.391 103.214 C 178.960 102.980,177.933 102.641,177.110 102.462 C 175.200 102.047,170.534 100.442,170.032 100.028 C 169.821 99.854,169.019 99.594,168.249 99.450 C 167.479 99.306,166.216 98.901,165.442 98.549 C 164.449 98.098,163.178 97.908,161.117 97.902 L 158.200 97.895 156.381 99.767 C 154.434 101.769,151.116 106.762,147.948 112.456 C 146.874 114.386,145.125 116.912,144.061 118.070 C 142.997 119.228,142.122 120.353,142.116 120.571 C 142.110 120.789,141.875 121.158,141.594 121.391 C 141.313 121.625,140.751 122.868,140.346 124.153 C 139.085 128.160,140.582 131.395,145.326 134.918 C 150.142 138.494,154.196 144.231,156.357 150.526 C 157.286 153.234,158.450 161.908,158.083 163.393 C 157.980 163.812,157.735 165.707,157.539 167.604 C 157.343 169.501,156.870 171.961,156.486 173.072 C 156.103 174.182,155.789 175.412,155.789 175.805 C 155.789 176.198,155.474 177.138,155.088 177.895 C 154.702 178.651,154.386 179.444,154.386 179.657 C 154.386 180.733,148.969 191.424,146.667 194.892 C 141.433 202.776,140.635 203.354,137.495 201.543 C 135.215 200.229,133.008 198.794,130.140 196.759 C 126.206 193.968,121.188 188.444,117.892 183.278 C 116.396 180.933,112.982 173.942,112.982 173.224 C 112.982 172.980,112.676 172.179,112.301 171.443 C 111.926 170.708,111.518 169.644,111.394 169.078 C 110.571 165.335,107.806 162.145,105.288 162.036 C 97.995 161.721,95.760 164.314,97.385 171.206 C 97.978 173.723,98.656 174.677,103.584 179.931 C 105.268 181.727,106.880 183.621,107.166 184.142 C 107.451 184.662,107.871 185.433,108.099 185.855 C 108.738 187.038,108.277 187.719,106.839 187.719 C 105.498 187.719,101.209 183.915,99.271 181.005 C 90.929 168.484,89.033 166.667,84.301 166.667 C 77.453 166.667,77.742 178.414,84.705 183.110 C 85.460 183.619,86.486 184.312,86.986 184.651 C 87.486 184.990,88.532 185.575,89.311 185.950 C 90.089 186.326,90.852 186.759,91.006 186.913 C 91.311 187.218,96.076 189.895,97.636 190.637 C 99.238 191.399,102.429 194.399,102.220 194.945 C 101.951 195.644,96.334 195.627,94.985 194.923 C 94.446 194.642,93.420 194.306,92.704 194.176 C 91.989 194.045,90.648 193.645,89.724 193.285 C 87.648 192.477,82.422 192.379,80.999 193.122 C 80.487 193.389,79.510 193.791,78.829 194.016 C 75.669 195.059,73.985 199.205,75.789 201.499 C 76.175 201.990,76.491 202.549,76.491 202.742 C 76.491 202.935,77.312 203.778,78.315 204.616 L 80.138 206.140 84.367 206.068 C 86.693 206.028,89.939 205.726,91.579 205.396 C 96.701 204.366,110.834 204.299,114.896 205.286 C 119.091 206.305,123.618 208.121,126.316 209.866 C 126.798 210.178,127.982 210.923,128.947 211.523 C 129.912 212.123,130.870 212.754,131.075 212.926 C 131.280 213.098,131.823 213.439,132.281 213.684 C 132.739 213.929,133.282 214.276,133.487 214.454 C 133.692 214.633,134.400 215.124,135.059 215.547 C 137.085 216.845,137.319 216.999,138.912 218.077 C 139.761 218.652,140.709 219.274,141.017 219.460 C 141.326 219.645,141.974 220.052,142.456 220.364 C 142.939 220.676,143.876 221.119,144.539 221.347 C 145.202 221.576,145.991 221.985,146.293 222.255 C 149.036 224.715,152.940 221.395,158.153 212.171 C 158.391 211.749,158.588 211.003,158.591 210.513 C 158.594 210.023,158.912 209.003,159.298 208.246 C 159.684 207.489,160.000 206.699,160.000 206.491 C 160.000 206.283,160.316 205.494,160.702 204.737 C 161.088 203.980,161.406 203.196,161.409 202.996 C 161.415 202.549,163.404 198.562,164.537 196.726 C 165.926 194.475,167.704 194.283,168.218 196.330 C 168.337 196.805,168.577 197.193,168.751 197.193 C 168.926 197.193,169.258 197.785,169.491 198.509 C 169.723 199.232,170.108 200.061,170.345 200.351 C 170.583 200.640,171.356 202.061,172.063 203.509 C 172.770 204.956,173.491 206.377,173.665 206.667 C 173.839 206.956,174.724 208.535,175.631 210.175 C 177.142 212.908,179.221 216.152,182.190 220.412 C 182.819 221.315,184.991 223.980,187.018 226.336 C 191.737 231.824,191.496 231.464,190.871 232.077 C 190.434 232.507,189.623 232.537,185.789 232.264 C 171.228 231.230,165.429 231.504,161.501 233.412 C 158.785 234.731,158.581 235.287,159.867 237.848 C 161.681 241.460,164.102 244.526,168.201 248.402 C 169.335 249.474,170.909 250.977,171.700 251.742 C 172.491 252.507,174.959 254.627,177.183 256.452 C 183.241 261.423,190.200 267.764,192.510 270.417 C 193.638 271.713,194.838 273.057,195.175 273.404 C 196.539 274.805,194.979 277.895,192.907 277.895 C 192.613 277.895,191.365 278.247,190.133 278.678 C 187.993 279.427,187.386 279.462,176.316 279.468 L 164.737 279.474 163.333 278.630 C 160.673 277.030,156.852 272.541,155.390 269.298 C 155.216 268.912,154.606 267.886,154.035 267.018 C 153.464 266.149,152.849 265.109,152.669 264.706 C 152.489 264.303,151.849 263.277,151.247 262.425 C 150.645 261.574,149.892 260.482,149.574 260.000 C 146.942 256.006,143.011 255.100,138.421 257.431 C 131.171 261.112,132.190 268.211,140.789 273.927 C 143.196 275.527,146.316 278.350,146.316 278.928 C 146.316 280.877,142.297 281.635,138.056 280.486 C 136.906 280.174,135.096 279.716,134.035 279.467 C 132.974 279.218,131.632 278.843,131.053 278.633 C 122.381 275.488,118.292 276.451,115.715 282.246 C 112.644 289.153,115.913 292.882,124.703 292.497 C 139.979 291.828,139.838 291.828,140.999 292.428 C 142.865 293.394,141.582 295.411,138.518 296.326 C 138.079 296.457,137.353 296.796,136.905 297.078 C 136.458 297.361,135.431 297.808,134.625 298.073 C 126.108 300.863,123.901 302.474,123.874 305.917 C 123.854 308.477,126.435 312.982,127.921 312.982 C 128.149 312.982,128.528 313.215,128.764 313.499 C 129.000 313.784,129.770 314.115,130.474 314.236 C 131.178 314.357,132.758 314.756,133.984 315.123 C 138.239 316.395,140.378 315.786,142.969 312.564 C 144.350 310.847,144.780 310.184,147.135 306.135 C 149.843 301.481,156.613 296.140,159.805 296.140 C 160.101 296.140,161.174 295.819,162.189 295.427 C 163.729 294.832,165.372 294.659,172.105 294.380 C 176.544 294.197,182.307 293.893,184.912 293.705 C 187.518 293.517,192.175 293.257,195.263 293.128 C 198.351 292.999,201.667 292.669,202.632 292.395 C 203.596 292.121,205.084 291.728,205.936 291.521 C 206.789 291.315,207.973 290.849,208.568 290.487 C 209.162 290.124,209.836 289.827,210.063 289.826 C 211.233 289.822,217.489 285.036,219.563 282.559 C 222.491 279.061,222.670 279.391,211.983 268.596 C 203.853 260.385,201.827 258.104,200.857 256.072 C 200.112 254.508,200.388 253.524,201.496 253.799 C 201.927 253.906,202.991 254.175,203.860 254.396 C 204.728 254.617,207.018 255.193,208.947 255.675 C 210.877 256.157,213.561 256.854,214.912 257.224 C 216.263 257.594,217.789 257.896,218.302 257.896 C 218.816 257.895,220.237 258.208,221.460 258.592 C 224.673 259.599,233.883 259.602,235.965 258.596 C 236.737 258.224,237.630 257.913,237.950 257.907 C 238.955 257.886,242.195 256.064,244.386 254.288 C 249.303 250.301,251.329 246.587,253.044 238.421 C 253.247 237.456,253.700 235.640,254.051 234.386 C 254.403 233.132,254.847 231.395,255.038 230.526 C 256.413 224.283,259.758 219.336,261.016 221.685 C 261.683 222.932,262.453 227.989,262.792 233.348 C 262.988 236.446,263.369 239.458,263.674 240.322 C 263.969 241.158,264.211 242.259,264.211 242.769 C 264.211 245.178,266.650 247.933,268.421 247.523 C 269.733 247.219,275.144 241.395,277.908 237.312 C 279.566 234.862,281.543 232.081,281.733 231.930 C 281.855 231.833,282.542 230.886,283.260 229.825 C 285.448 226.594,285.702 226.232,287.709 223.504 C 288.776 222.055,290.120 220.160,290.696 219.294 C 291.272 218.428,292.377 216.901,293.152 215.901 C 293.927 214.901,295.351 213.012,296.316 211.704 C 297.281 210.396,298.307 209.062,298.596 208.739 C 298.886 208.417,299.405 207.780,299.749 207.322 C 309.901 193.845,318.371 185.004,328.428 177.384 C 334.307 172.930,335.976 168.258,333.188 164.057 C 332.475 162.984,331.851 162.105,331.800 162.105 C 331.749 162.105,330.825 161.942,329.746 161.743 C 323.194 160.531,319.574 163.266,315.332 172.632 C 313.198 177.342,312.540 178.544,311.227 180.134 C 309.131 182.670,306.016 184.758,304.705 184.505 C 302.705 184.120,301.482 178.528,302.764 175.630 C 303.174 174.704,303.510 173.769,303.512 173.552 C 303.514 173.335,303.904 172.368,304.378 171.404 C 304.853 170.439,305.246 169.390,305.252 169.073 C 305.258 168.757,305.575 167.809,305.957 166.968 C 306.510 165.751,306.653 164.663,306.659 161.641 L 306.667 157.843 305.000 156.102 L 303.333 154.361 299.803 154.149 C 295.339 153.881,294.106 154.248,292.766 156.243 C 291.581 158.007,291.402 163.712,292.440 166.632 C 292.742 167.481,293.081 169.060,293.193 170.141 C 293.305 171.221,293.613 173.211,293.877 174.563 C 294.522 177.870,294.882 185.292,294.429 185.952 C 294.007 186.567,292.347 186.114,291.903 185.263 C 291.159 183.837,290.190 181.467,289.967 180.526 C 289.829 179.947,289.425 178.923,289.069 178.251 C 288.713 177.578,288.421 176.743,288.421 176.395 C 288.421 176.046,288.105 175.143,287.719 174.386 C 287.333 173.629,287.013 172.728,287.007 172.382 C 287.001 172.037,286.607 170.965,286.133 170.000 C 285.658 169.035,285.268 168.006,285.266 167.713 C 285.257 166.158,282.107 163.509,280.267 163.509 C 275.138 163.509,270.718 169.558,272.854 173.652 C 273.115 174.152,273.333 174.719,273.338 174.912 C 273.342 175.105,273.819 175.974,274.397 176.842 C 274.976 177.711,275.601 178.658,275.788 178.947 C 275.975 179.237,276.525 180.073,277.011 180.805 C 277.497 181.537,277.895 182.219,277.895 182.320 C 277.895 182.420,278.289 183.020,278.772 183.653 C 279.254 184.286,279.649 184.961,279.649 185.154 C 279.649 185.347,279.965 185.791,280.351 186.140 C 280.737 186.490,281.053 186.967,281.053 187.200 C 281.053 187.434,281.347 188.001,281.706 188.461 C 282.066 188.922,282.479 189.693,282.625 190.175 C 282.771 190.658,283.082 191.289,283.317 191.579 C 285.311 194.039,286.090 200.788,284.716 203.704 C 283.032 207.275,279.742 211.579,278.696 211.579 C 277.851 211.579,276.885 207.441,276.157 200.702 C 275.979 199.061,275.588 197.132,275.286 196.415 C 274.984 195.697,274.737 194.759,274.737 194.330 C 274.737 191.538,267.796 181.751,265.817 181.754 C 264.714 181.755,261.719 185.182,259.838 188.596 C 259.625 188.982,258.667 190.601,257.708 192.193 C 255.763 195.424,254.677 197.257,253.872 198.670 C 252.038 201.888,247.621 204.205,246.317 202.633 C 246.055 202.317,245.779 200.319,245.625 197.633 C 245.484 195.172,245.092 192.211,244.753 191.053 C 243.909 188.171,242.403 184.139,241.951 183.550 C 241.747 183.283,241.263 182.459,240.877 181.718 C 239.391 178.870,234.333 172.112,228.851 165.652 C 224.805 160.885,224.877 160.351,229.561 160.351 C 234.472 160.350,241.200 161.591,249.825 164.086 C 251.465 164.561,253.833 165.246,255.088 165.610 C 256.342 165.973,258.560 166.614,260.017 167.034 C 264.146 168.226,264.916 167.682,265.757 162.982 C 266.583 158.367,266.652 157.460,267.018 146.316 C 267.251 139.259,267.545 134.897,267.883 133.509 C 268.165 132.351,268.402 130.972,268.409 130.446 C 268.421 129.485,269.639 126.109,271.037 123.158 C 273.519 117.920,277.887 113.382,283.437 110.275 C 292.367 105.276,293.276 104.450,294.815 99.925 C 296.662 94.496,295.480 91.170,291.271 89.946 C 286.675 88.610,282.753 90.343,279.686 95.065 C 278.701 96.581,277.895 97.931,277.895 98.066 C 277.895 98.200,277.579 98.712,277.193 99.203 C 276.807 99.693,276.491 100.370,276.491 100.706 C 276.491 101.042,276.262 101.508,275.982 101.740 C 275.703 101.972,275.121 102.890,274.690 103.780 C 272.843 107.596,268.825 110.272,266.715 109.090 C 265.427 108.369,265.281 106.742,265.648 97.193 C 266.291 80.457,264.685 77.343,256.619 79.680 " stroke="none" fill="#000000" fill-rule="evenodd"></path></g></svg>